<svg xmlns="http://www.w3.org/2000/svg" viewBox="0 0 1200 1200" width="1200" height="1200" preserveAspectRatio="xMidYMid slice">
  <!-- CAI image placeholder, night (MIT). The same arches in the dark colours of the vejer theme: night sky, moon, shaded stone, terracotta, a lit door and iron. Master of the rasters next to it: edit here, then run `pnpm placeholders:build`. -->
  <rect width="1200" height="1200" fill="#1c1712"/>
  <path d="M450 1200V560a260 260 0 0 1 520 0V1200Z" fill="#134577"/>
  <circle cx="780" cy="500" r="72" fill="#f3ece1"/>
  <path d="M180 1200V600a190 190 0 0 1 380 0V1200Z" fill="#3a3028"/>
  <circle cx="280" cy="950" r="200" fill="#c9785a"/>
  <path d="M590 1200V800a62 62 0 0 1 124 0V1200Z" fill="#cbbba5"/>
  <path d="M400 560a310 310 0 0 1 620 0h-12a298 298 0 0 0-596 0Z" fill="#877a69"/>
  <path d="M0 886C300 851 720 921 1200 873V1200H0Z" fill="#2e261f"/>
</svg>
